<?xml version="1.0" encoding="UTF-8"?>
<svg xmlns="http://www.w3.org/2000/svg" xmlns:xlink="http://www.w3.org/1999/xlink" viewBox="0 0 2348.84 2527.09">
  <defs>
    <style>
      .cls-1 {
        fill: url(#linear-gradient-8);
      }

      .cls-2 {
        fill: url(#linear-gradient-7);
      }

      .cls-3 {
        fill: url(#linear-gradient-5);
      }

      .cls-4 {
        fill: url(#linear-gradient-6);
      }

      .cls-5 {
        fill: url(#linear-gradient-4);
      }

      .cls-6 {
        fill: url(#linear-gradient-3);
      }

      .cls-7 {
        fill: url(#linear-gradient-2);
      }

      .cls-8 {
        fill: url(#linear-gradient);
      }

      .cls-9 {
        fill: url(#Gradiente_sem_nome_164);
      }

      .cls-10 {
        fill: url(#Gradiente_sem_nome_225);
      }

      .cls-11 {
        fill: url(#Gradiente_sem_nome_230);
      }

      .cls-12 {
        isolation: isolate;
      }

      .cls-13 {
        fill: #26264f;
      }

      .cls-14 {
        fill: url(#linear-gradient-9);
      }

      .cls-14, .cls-15 {
        mix-blend-mode: multiply;
        opacity: .6;
      }

      .cls-16 {
        fill: #39b54a;
      }

      .cls-17 {
        fill: url(#linear-gradient-11);
      }

      .cls-18 {
        fill: url(#linear-gradient-12);
      }

      .cls-19 {
        fill: url(#linear-gradient-13);
      }

      .cls-20 {
        fill: url(#linear-gradient-14);
      }

      .cls-21 {
        fill: #fff;
        mix-blend-mode: soft-light;
        opacity: .5;
      }

      .cls-22 {
        fill: #fbb03b;
      }

      .cls-15 {
        fill: url(#linear-gradient-10);
      }

      .cls-23 {
        fill: #006837;
      }
    </style>
    <linearGradient id="linear-gradient" x1="764.71" y1="1084.13" x2="542.67" y2="2968.74" gradientUnits="userSpaceOnUse">
      <stop offset="0" stop-color="#ffc444"/>
      <stop offset="1" stop-color="#f36f56"/>
    </linearGradient>
    <linearGradient id="linear-gradient-2" x1="1655.51" y1="270.69" x2="-727.68" y2="3607.16" gradientUnits="userSpaceOnUse">
      <stop offset="0" stop-color="#893976"/>
      <stop offset="1" stop-color="#311944"/>
    </linearGradient>
    <linearGradient id="linear-gradient-3" x1="1484.63" y1="87.67" x2="-73.4" y2="4206.4" xlink:href="#linear-gradient"/>
    <linearGradient id="linear-gradient-4" x1="2017.87" y1="2114.97" x2="2017.87" y2="2665.22" xlink:href="#linear-gradient"/>
    <linearGradient id="linear-gradient-5" x1="1953.25" y1="2377.22" x2="1972.99" y2="2596.83" xlink:href="#linear-gradient-2"/>
    <linearGradient id="linear-gradient-6" x1="2191.68" y1="2114.97" x2="2191.68" y2="2665.22" xlink:href="#linear-gradient"/>
    <linearGradient id="linear-gradient-7" x1="1972.72" y1="1675.39" x2="2219.47" y2="2741.35" xlink:href="#linear-gradient-2"/>
    <linearGradient id="linear-gradient-8" x1="2110.14" y1="2358.44" x2="2129.88" y2="2578.05" xlink:href="#linear-gradient-2"/>
    <linearGradient id="linear-gradient-9" x1="2003.54" y1="1668.26" x2="2250.29" y2="2734.22" xlink:href="#linear-gradient-2"/>
    <linearGradient id="Gradiente_sem_nome_230" data-name="Gradiente sem nome 230" x1="2079.17" y1="1638.71" x2="2325.92" y2="2704.67" gradientUnits="userSpaceOnUse">
      <stop offset="0" stop-color="#893976"/>
      <stop offset="1" stop-color="#311944"/>
    </linearGradient>
    <linearGradient id="Gradiente_sem_nome_164" data-name="Gradiente sem nome 164" x1="1870.89" y1="1382" x2="2348.84" y2="1382" gradientUnits="userSpaceOnUse">
      <stop offset="0" stop-color="#5bb030"/>
      <stop offset="1" stop-color="#009f3f"/>
    </linearGradient>
    <linearGradient id="linear-gradient-10" x1="1870.89" y1="1409.15" x2="2346.65" y2="1409.15" gradientUnits="userSpaceOnUse">
      <stop offset="0" stop-color="#e38ddd"/>
      <stop offset="1" stop-color="#9571f6"/>
    </linearGradient>
    <linearGradient id="linear-gradient-11" x1="1788.39" y1="1035.11" x2="1842.68" y2="1377.27" xlink:href="#linear-gradient"/>
    <linearGradient id="Gradiente_sem_nome_225" data-name="Gradiente sem nome 225" x1="1956.16" y1="1190.91" x2="2248.06" y2="1190.91" gradientUnits="userSpaceOnUse">
      <stop offset="0" stop-color="#41ab34"/>
      <stop offset="1" stop-color="#038036"/>
    </linearGradient>
    <linearGradient id="linear-gradient-12" x1="1990.53" y1="836.2" x2="2059.62" y2="1183.29" xlink:href="#linear-gradient"/>
    <linearGradient id="linear-gradient-13" x1="2033.25" y1="-2060.6" x2="1914.82" y2="-2281.02" gradientTransform="translate(3631.09 -2486.42) rotate(131.27) scale(1 -1)" xlink:href="#linear-gradient"/>
    <linearGradient id="linear-gradient-14" x1="2026.33" y1="-2068.2" x2="1907.89" y2="-2288.62" gradientTransform="translate(3631.09 -2486.42) rotate(131.27) scale(1 -1)" xlink:href="#linear-gradient"/>
  </defs>
  <g class="cls-12">
    <g id="Illustration">
      <path class="cls-16" d="M707.35,548.83c-49.68-37.79-122.58-99.17-196.52-187.61-78.76-94.19-194.63-232.75-155.8-296.79,38.38-63.31,224.98-48.9,343,43.33,15.48,12.09,162.86,131,126.37,285.23-21.38,90.35-93.55,140.8-117.05,155.84Z"/>
      <path class="cls-16" d="M586.92,1007.21c6.68-17.79,80.35-223.62-41.03-378.44-75.6-96.42-221.21-165.86-284.73-120.23-72.7,52.22-42.98,258.81,68.06,379.32,91.51,99.31,215.66,115.67,257.7,119.35Z"/>
      <path class="cls-16" d="M996.87,613.79c7.94,43.02,14.35,118.03-20.83,194.42-59.65,129.55-213.98,208.9-389.12,199,10.48-46.91,39.61-146.97,125.74-239.07,108.43-115.95,238.68-146,284.21-154.35Z"/>
      <path class="cls-16" d="M466.25,1310.16c-17.03-66.44-49.84-156.28-117-244.9-55.16-72.79-122.68-161.88-200.02-148.74-58.86,10-105.82,76.23-111.93,137.2-11.2,111.78,116.55,189.56,150.23,210.06,113.81,69.29,233.95,54.39,278.72,46.38Z"/>
      <path class="cls-16" d="M510.28,1324.51c29.24-69.89,91.64-185.45,216.63-256.35,43.15-24.48,149.96-85.06,220.24-39.72,35.95,23.19,60.15,72.68,54.16,111.93-21.43,140.38-433.54,179.13-491.03,184.14Z"/>
      <path class="cls-16" d="M452.51,1765c-16.67-65.33-56.51-180.08-158.5-275.4-76.57-71.56-218.4-160.43-271.15-118.15-47.57,38.14-16.4,177.93,52.06,265.24,121.67,155.16,350.85,131.47,377.59,128.31Z"/>
      <path class="cls-16" d="M524.73,1844.43c-2.29-55.53,1.56-165.17,68.6-270.79,75.68-119.24,223.55-220.21,278.01-184.14,56.37,37.34,28.9,232.22-83.04,346.61-94.49,96.56-220.8,106.78-263.57,108.32Z"/>
      <path class="cls-16" d="M716.08,2176.6c-17.71-22.03-129.49-156.74-296.06-151.64-130.48,3.99-261.76,92.77-252.74,144.42,9.83,56.28,187.06,73.35,293.55,68.5,110.78-5.04,199.08-36.27,255.25-61.28Z"/>
      <path class="cls-8" d="M509.5,128.41c22.71,13.36,44.82,27.94,65.61,44.36,20.72,16.49,40.28,34.59,58.11,54.38,17.83,19.78,33.93,41.27,47.69,64.3,13.68,23.1,24.7,47.71,33.28,73.35,8.28,25.9,12.39,53.46,12.61,80.39.38,26.99-1.81,53.65-5.26,79.95-7.21,52.55-18.38,104.01-30.58,155.09-2.98,12.8-6.21,25.51-9.46,38.22-3.24,12.71-6.52,25.41-10.01,38.06-6.76,25.34-13.89,50.61-21.33,75.81-14.94,50.34-31.46,100.52-49.87,149.58-9.04,24.58-18.23,48.94-26.75,73.38-8.49,24.45-16.46,49.02-23.72,73.84-3.62,12.42-7.08,24.89-10.49,37.38l-9.79,37.68c-6.46,25.29-12.83,50.55-18.94,75.83-5.99,25.28-11.9,50.55-16.9,75.91-2.69,12.66-4.81,25.38-7.18,38.07-1.98,12.73-4.25,25.43-5.82,38.19-7.1,50.98-9.8,102.32-8.12,153.62l1.03,19.22.52,9.61.84,9.6,1.68,19.2,2.05,19.41c2.81,25.82,6.02,51.4,10.45,76.72,8.88,50.57,21.9,100.35,41.81,147.43,9.56,23.7,21.44,46.37,34.07,68.55,6.71,10.86,13.06,21.97,20.49,32.38,3.64,5.25,7.08,10.65,10.87,15.8l11.5,15.35c31.38,40.45,68.47,76.41,109.29,107.62,40.88,31.16,85.76,57.23,132.93,78.29,23.6,10.53,47.8,19.74,72.4,27.82,24.59,8.1,49.61,14.97,74.96,20.51,2.92.64,4.78,3.52,4.14,6.44-.62,2.85-3.4,4.68-6.24,4.18-25.91-4.62-51.6-10.61-76.95-17.89-25.33-7.35-50.24-16.14-74.69-26.17-48.83-20.13-95.7-45.55-138.87-76.53-43.15-30.98-82.27-67.81-115.92-109.2l-12.32-15.76c-4.06-5.29-7.78-10.83-11.69-16.24-7.97-10.72-14.88-22.15-22.03-33.43-13.56-22.98-26.33-46.54-36.71-71.16-21.5-48.94-36.03-100.68-45.73-152.88-4.81-26.12-8.34-52.38-11.42-78.48l-2.24-19.54-1.92-19.83-.96-9.92-.63-9.95-1.24-19.9c-2.27-53.13.07-106.55,7.35-159.09,1.59-13.18,3.86-26.21,5.87-39.3,2.38-13,4.52-26.07,7.22-38.97,5.03-25.92,10.94-51.56,16.93-77.14,6.09-25.54,12.42-50.96,18.81-76.31,3.16-12.68,6.68-25.44,10-38.16,3.52-12.7,7.09-25.39,10.82-38.04,7.5-25.3,15.74-50.42,24.48-75.3,8.77-24.87,18.11-49.37,27.19-73.8,18.31-48.78,35.33-97.63,50.54-147.35,15.28-49.65,29.04-99.91,42.23-150.2,12.95-50.32,24.82-100.94,32.68-151.83,7.57-50.75,11.63-102.34-2.95-150.35l-2.78-9.03-3.22-8.93c-2.24-5.92-4.06-12.02-6.78-17.76-2.6-5.78-4.92-11.7-7.74-17.39l-8.69-16.98c-12.33-22.27-27.01-43.3-43.52-62.88-33.08-39.18-73.21-72.47-116.67-100.59l-.04-.02c-2.51-1.63-3.23-4.98-1.6-7.49,1.58-2.44,4.81-3.18,7.3-1.73Z"/>
      <path class="cls-23" d="M1716.2,1981.63c16.92-58.34,41.42-175.69-2.49-305.12-41.77-123.13-152.4-277.73-243.03-258.12-49.66,10.75-96.03,74.39-93.87,133.59,3.54,97.04,135.28,122.19,259.96,292.45,38.76,52.93,63.78,102.05,79.43,137.2Z"/>
      <path class="cls-23" d="M1744.28,2023.03c15.13-48.63,69.64-201.23,221.05-279.69,91.53-47.43,266.8-92.83,335.78-7.22,33.75,41.89,41.21,114.1,10.83,162.47-36.86,58.68-112.96,56.1-312.35,82.96-109.64,14.77-198.28,30.59-255.31,41.48Z"/>
      <path class="cls-23" d="M1914.78,1555.59c-7.49-26.22-43.51-162.16,35.66-283.01,47.62-72.69,158.16-172.32,263.03-136.93,46.63,15.74,103.27,61.92,102.08,113.04-1.36,58.3-77.04,84.87-284.31,225.33-48.59,32.93-88.48,61.32-116.46,81.57Z"/>
      <path class="cls-23" d="M1846.18,1555.59c-7.75-82.91-32.37-144.86-51.54-183.42-26.99-54.27-75.38-151.6-174.79-183.83-46.79-15.17-123.12-21.83-145.56,13.42-29.71,46.68,50.2,143.14,72.21,169.7,41.7,50.33,130.04,136.65,299.67,184.14Z"/>
      <path class="cls-16" d="M1795.64,1118.71c-17.27-26.93-89.05-145.41-54.16-288.84,6.36-26.14,36.56-150.28,146.6-202.62,17.24-8.2,104.56-47.04,145.85-10.4,63.44,56.29-31.37,246.77-43.33,270.79-55.67,111.83-134.86,185.78-194.97,231.07Z"/>
      <path class="cls-16" d="M1737.87,1133.15c-9.77-49.66-35.05-138.17-108.66-213.3-93.08-95-248.5-153.38-292.11-108.04-35,36.4,3.64,137.98,50.55,198.58,111.26,143.74,322.17,125.59,350.22,122.76Z"/>
      <path class="cls-16" d="M1593.45,692.67c34.27-60.31,84.85-170.04,83.04-310.51-1.41-109.45-35.4-298.39-118.29-311.99-69.83-11.46-152.53,105.1-181.39,200.06-38.04,125.16-3.81,282.77,104.71,368.27,40.36,31.81,82.18,46.68,111.93,54.16Z"/>
      <path class="cls-22" d="M1522.96,289.19c-3.54,23.25-6.07,46.62-7.47,70.05-1.51,23.42-1.86,46.89-1.11,70.31,1.46,46.83,7.64,93.48,18.48,138.88l1.99,8.52,2.32,8.43,4.65,16.86c3.57,11.1,6.82,22.29,10.96,33.2,3.76,11.03,8.3,21.78,12.61,32.61,4.73,10.67,9.29,21.41,14.47,31.9,20.1,42.21,44.27,82.64,68.19,123.52,11.97,20.4,23.95,41.07,35.54,61.68,11.65,20.61,23.35,41.23,34.72,62.07,22.84,41.6,45.1,83.66,65.7,126.65,41.31,85.8,75.49,176.19,93.78,270.71l3.18,17.75c1.03,5.92,2.24,11.81,2.91,17.8l2.36,17.89,1.18,8.95c.44,2.98.78,5.97.94,8.97l2.66,36,.66,9,.14,9.02.23,18.04.22,18.04c.11,6.01-.44,12.02-.63,18.02l-.82,18.02-.41,9.01c-.1,3.01-.28,6-.64,8.99l-3.62,35.87c-.46,6-1.66,11.9-2.49,17.84l-2.73,17.81c-15.83,94.79-46.93,186.67-90.52,271.98-11.1,21.23-22.62,42.29-35.51,62.49-6.47,10.08-12.8,20.26-19.39,30.25l-20.73,29.34c-28.44,38.53-59.77,74.88-93.72,108.56-68.22,66.99-146.46,123.66-231.65,166.34-2.67,1.34-5.93.26-7.27-2.41-1.31-2.61-.3-5.79,2.25-7.19,20.66-11.27,40.84-23.38,60.51-36.24,9.95-6.25,19.55-13.03,29.27-19.62,4.83-3.34,9.52-6.88,14.29-10.3,4.72-3.49,9.57-6.81,14.15-10.48,37.37-28.44,72.54-59.67,105.16-93.3,32.74-33.52,62.81-69.56,90-107.64l19.78-28.98c6.27-9.87,12.29-19.9,18.45-29.83,12.27-19.9,23.16-40.6,33.66-61.48,20.52-42,38.53-85.27,52.94-129.72,14.49-44.42,25.4-89.93,32.94-135.93l2.61-17.29c.78-5.77,1.95-11.5,2.37-17.32l3.42-34.78c.34-2.89.51-5.8.6-8.71l.37-8.73.75-17.45c.17-5.82.69-11.63.57-17.45l-.27-17.46c-.36-46.55-5.04-93.03-13.83-138.78-8.73-45.78-21.38-90.84-36.91-134.97-15.57-44.12-33.88-87.36-53.86-129.9-20.01-42.54-41.75-84.36-64.17-125.91-22.56-41.51-44.97-83.16-68.37-124.14-23.3-41.14-47.22-82.43-67.24-126.03-5.15-10.81-9.7-21.93-14.4-32.97-4.29-11.22-8.8-22.35-12.52-33.79-4.1-11.3-7.3-22.89-10.81-34.38l-4.49-17.45-2.18-8.74-1.85-8.81c-20.17-93.85-20.59-191.36-3.02-285.04.55-2.94,3.38-4.88,6.32-4.33,2.88.53,4.79,3.27,4.36,6.14Z"/>
      <polygon class="cls-7" points="1795.97 768.73 1271.08 523.4 1104.78 0 1028.96 39.16 1028.96 515.93 610.91 500.68 535.09 510.3 535.09 770.19 610.91 770.19 1028.96 777.51 1028.96 2317.41 1104.78 2370.7 1271.08 781.11 1720.15 787.77 1795.97 768.73"/>
      <polygon class="cls-6" points="1795.97 537.27 1346.91 523.4 1346.91 15.74 1104.78 0 1104.78 515.93 610.91 500.68 610.91 751.15 1104.78 758.47 1104.78 2370.7 1346.91 2348.47 1346.91 762.06 1795.97 768.73 1795.97 537.27"/>
      <path class="cls-21" d="M1207.14,1307.02c44.71-140.85,155.1-388.27,70.4-666.11-44.4-145.65-113.23-203.91-135.39-352.01-14.87-99.34-1.95-193.87,24.71-279.44l-62.09-4.04v515.93l-493.87-15.25v250.47l493.87,7.33v1612.23l168.72-15.49c-163.68-503.61-135.99-834.27-66.36-1053.61Z"/>
      <polygon class="cls-5" points="1996.09 2411.06 1996.09 2469.63 2036.63 2469.63 2039.65 2411.06 1996.09 2411.06"/>
      <path class="cls-3" d="M1881.85,2526.51h154.27c12.46,0,22.12-10.75,20.95-23.15-1.63-17.26-6.21-38.89-18.74-45.21-15.46-7.8-107.53,29.81-159.83,52.37-8.32,3.59-5.71,15.99,3.35,15.99Z"/>
      <polygon class="cls-4" points="2170.22 2425.87 2175.36 2476.38 2206.2 2483.62 2213.14 2425.87 2170.22 2425.87"/>
      <path class="cls-2" d="M1900.5,1592.06c22.15,144.73,41.38,297.8,56.25,458.63,12.25,132.42,20.63,260.11,25.87,382.59,23.85.82,47.7,1.64,71.56,2.47,27.87-57.7,57.47-142.62,46.88-241.81-7.64-71.59-28.69-80.15-32.96-151.4-6.24-104.18,35.04-140.06,52.49-261.89,6.2-43.25,10.76-108.42-2.26-191.25-72.61.89-145.23,1.78-217.84,2.67Z"/>
      <path class="cls-1" d="M2040.48,2527.09h154.27c12.46,0,22.12-10.75,20.95-23.15-1.63-17.26-6.21-38.89-18.74-45.21-15.46-7.8-107.53,29.81-159.83,52.37-8.32,3.59-5.71,15.99,3.35,15.99Z"/>
      <path class="cls-14" d="M2118.34,1589.39c-72.61.89-145.23,1.78-217.84,2.67,10.11,66.04,19.56,133.9,28.32,203.35,26.93,27.69,49.69,60.62,63.68,99.95,27.41,77.12-2.02,113.38,14.71,231.95,15.83,112.17,48.25,122.71,53.8,199.39,2.12,29.3.1,65.72-12.91,108.84,2.03.07,4.06.14,6.09.21,27.87-57.7,57.47-142.62,46.88-241.81-7.64-71.59-28.69-80.15-32.96-151.4-6.24-104.18,35.04-140.06,52.49-261.89,6.2-43.25,10.76-108.42-2.26-191.25Z"/>
      <path class="cls-11" d="M1952.81,1525.23c50.96,150.24,99.64,321.23,138.71,511.21,29.95,145.66,50.21,282.78,63.62,409.17,24.57.37,49.14.74,73.71,1.11,20.68-54.35,43.34-135.69,36.97-232.98-4.92-75.04-22.85-94.62-41.91-189.85-28.78-143.77-5-184.56-21.67-313.36-8.61-66.57-29.04-164.44-84.1-281.54-55.11,32.08-110.22,64.15-165.32,96.23Z"/>
      <path class="cls-9" d="M1931.6,1023.14c-65.61,82.23-36.05,152.84-45.21,393.52-8.2,215.65-38.3,326.46,17.27,357.79,24.3,13.7,34.31-5.09,108.59-2.31,71.18,2.67,88.64,20.92,192.44,39.32,80.4,14.25,120.6,21.38,135.71,4.93,29.84-32.47-26.12-106.88-66.62-244.28-28.55-96.84-12.98-101.37-39.48-246.75-35.95-197.22-66.5-364.87-151.13-385.18-70.23-16.86-145.59,75.45-151.58,82.96Z"/>
      <path class="cls-15" d="M2236.78,1747.31c-80.48-68.11-101.27-161.1-111.04-204.8-28.87-129.17,23.25-157.77-14.81-244.28-39.08-88.86-107.07-88.24-140.65-177.66-16.85-44.87-16.5-89.72-10.1-128.14-15.89,15.08-26.49,28.09-28.59,30.72-65.61,82.23-36.05,152.84-45.21,393.52-8.2,215.65-38.3,326.46,17.27,357.79,24.3,13.7,34.31-5.09,108.59-2.31,71.18,2.67,88.64,20.92,192.44,39.32,80.4,14.25,120.6,21.38,135.71,4.93,2.81-3.06,4.86-6.5,6.23-10.32-33.87-10.12-73.19-27.73-109.87-58.77Z"/>
      <path class="cls-17" d="M1817.64,1142.28s2.07-55.52-47.17-102.4c0,0-18.31,47.75.16,83.09l18.47,35.35,28.54,56.75,28.94-35.57-28.94-37.22Z"/>
      <path class="cls-10" d="M1793.3,1199.08l43.54-48.48,35.97,57.56s11.46-147.14,66.8-194.48c55.34-47.34,93.86-33.87,107.91-27.65,14.05,6.22,77.25,96.28,0,276.41-77.25,180.13-168.43,213.78-254.23-63.37Z"/>
      <path class="cls-18" d="M1975.41,853.77s60.31,80.23,87.54,84.36c0,0-65.74,37.98-90.1,42.89,0,0,10.12-70.39-17.81-92.5-27.93-22.11,20.37-34.75,20.37-34.75Z"/>
      <path class="cls-19" d="M1976.63,917.7c-3.81,2.79-21.75,31.54-40.1,28.08-24.91-4.69-42.65-37.34-45.84-41.86-13.37-18.95-14.61-22.72-15.44-29.02l-.8-8.58s.03-.45.09-.93c.59-4.96,7.26-19.54,9.33-22.15,6.59-8.32,49.37.54,101.53,29.88,2.23.62,4.47,1.27,6.73,1.94,5.86,1.74-13.7,43.81-15.5,42.63Z"/>
      <path class="cls-13" d="M1853.53,865.97c16.62,8.16,38.21,9.12,43.03,6.54.62-.33,4.34-2.09,9.54-2.76.71-.09,1.49-.1,2.43.02,12.26,1.54,16.33,24.26,22.6,23.37,4.55-.65,5.6-14.19,9.2-14.09,3.39.1,4.45,12.32,8.47,12.52,3.03.15,3.61-6.76,9.24-8.51,2.8-.87,4.05.41,10.82,1.36,3.83.54,8.19.8,10.77.61,12.58-.91,24.18-15.39,21.83-20.45-.66-1.41-1.94-1.11-5.14-3.81,0,0-2.97-2.5-5.72-6.78-3.92-6.12-3.9-16.21-5.74-27.31-3.41-20.56-10.67-29.28-13.2-32.07-.9-1-1.61-1.68-2.12-2.18-10.28-10-28.23-18.91-42-18.88-23.07.05-24.57,25.18-51.32,33.1-30.87,9.15-54-16.85-62.47-7.79-9.33,9.99,9.05,52,39.79,67.08Z"/>
      <path class="cls-20" d="M1930.18,885.25c-3.57-6.84,5.22-11.38,12.47-7.84,7.25,3.54,11.3,14.26,6.51,20.35-4.79,6.09-14.16-3.31-18.97-12.51Z"/>
    </g>
  </g>
</svg>